<svg viewBox="0 0 47 56" xmlns="http://www.w3.org/2000/svg"><path fill="#D5B47A" d="M44.91 29.935h-.931v-8.51a3.723 3.723 0 10-1.862-7.21 3.727 3.727 0 00-2.793 3.569V4.8a.931.931 0 00-.585-.865l-.667-.266a49.274 49.274 0 00-36.596 0l-.664.267a.93.93 0 00-.585.864v50.269c0 .514.417.931.931.931h37.236a.931.931 0 00.931-.931V37.382h5.585a.931.931 0 00.931-.931v-5.585a.93.93 0 00-.931-.931zM2.089 11.317h2.793v18.618H2.089V11.317zm23.272 42.821h-11.17v-3.724h11.171v3.724zm12.102 0h-10.24v-4.655a.931.931 0 00-.931-.931H13.26a.931.931 0 00-.931.931v4.655H2.089v-7.447h35.374v7.447zm0-9.309H2.089v-1.862h35.374v1.862zm0-3.723H2.089v-9.309h35.374v9.309zM6.743 29.935V11.317h7.447v18.618H6.743zm9.309 0V11.317H23.5v18.618h-7.448zm9.309 0V11.317h7.447v18.618h-7.447zm12.102 0H34.67V11.317h2.793v18.618zm0-20.48H2.089V5.431l.081-.032a47.394 47.394 0 0135.212 0l.081.032v4.024zm5.585 6.516a1.862 1.862 0 110 3.725 1.862 1.862 0 010-3.725zm-3.605 2.779a3.722 3.722 0 002.674 2.674v8.51h-2.793v-12.08c.004.296.042.596.119.896zm4.536 16.77h-4.655v-3.724h4.655v3.724z"/><path fill="#D5B47A" d="M21.934 16.95a.936.936 0 00-.296-.048h-3.724a.931.931 0 00-.931.931v.931a.931.931 0 001.862 0h1.502l-1.454 4.36a.934.934 0 00.59 1.179.934.934 0 001.179-.59l1.862-5.585a.932.932 0 00-.59-1.178zm9.309 0a.936.936 0 00-.296-.048h-3.724a.931.931 0 00-.931.931v.931a.931.931 0 001.862 0h1.502l-1.454 4.36a.934.934 0 00.59 1.179.934.934 0 001.179-.59l1.862-5.585a.932.932 0 00-.59-1.178zm-18.618 0a.936.936 0 00-.296-.048H8.605a.931.931 0 00-.931.931v.931a.931.931 0 001.862 0h1.502l-1.454 4.36a.934.934 0 00.59 1.179.934.934 0 001.179-.59l1.862-5.585a.932.932 0 00-.59-1.178zm.635 16.708H7.674a.931.931 0 00-.931.931v3.724c0 .514.417.931.931.931h5.585a.931.931 0 00.931-.931v-3.724a.93.93 0 00-.93-.931zm-.931 3.724H8.605V35.52h3.724v1.862zm10.24-3.724h-5.585a.931.931 0 00-.931.931v3.724c0 .514.417.931.931.931h5.585a.931.931 0 00.931-.931v-3.724a.931.931 0 00-.931-.931zm-.931 3.724h-3.724V35.52h3.724v1.862zm10.24-3.724h-5.585a.931.931 0 00-.931.931v3.724c0 .514.417.931.931.931h5.585a.931.931 0 00.931-.931v-3.724a.931.931 0 00-.931-.931zm-.931 3.724h-3.724V35.52h3.724v1.862zM5.542 6.001a1.526 1.526 0 00-.14-.112.668.668 0 00-.167-.083.577.577 0 00-.167-.056.887.887 0 00-.54.056.838.838 0 00-.503.502.92.92 0 00.838 1.285h.019c.062-.002.125-.008.186-.019a.594.594 0 00.168-.056.714.714 0 00.168-.084l.14-.112.112-.14a.733.733 0 00.084-.168.583.583 0 00.056-.168c.01-.062.017-.124.019-.186a.995.995 0 00-.273-.659zm3.92.307a.974.974 0 00-.196-.307.931.931 0 00-1.015-.195.96.96 0 00-.307.195.981.981 0 00-.27.661c.002.062.008.125.019.186.01.058.029.115.056.168.02.059.049.116.084.168l.112.14a.932.932 0 001.592-.661.956.956 0 00-.075-.355zm3.528-.307a.96.96 0 00-.307-.195.953.953 0 00-1.015.195.96.96 0 00-.195.307.921.921 0 00.838 1.285h.019a.983.983 0 00.661-.27l.112-.14a.733.733 0 00.084-.168.583.583 0 00.056-.168c.01-.062.017-.124.019-.186a.994.994 0 00-.272-.66zm3.919.307a.84.84 0 00-.503-.503.894.894 0 00-.54-.056.594.594 0 00-.168.056.714.714 0 00-.168.084 1.493 1.493 0 00-.14.112 1.074 1.074 0 00-.195.307.916.916 0 00-.074.354c.004.246.1.482.27.661l.14.112a.733.733 0 00.168.084.583.583 0 00.168.056.921.921 0 001.117-.893v-.019a.956.956 0 00-.075-.355zm7.251-.307a.947.947 0 00-1.015-.195.84.84 0 00-.503.503.921.921 0 00.838 1.285h.019c.062-.002.125-.008.186-.019a.594.594 0 00.168-.056.714.714 0 00.168-.084l.14-.112.112-.14a.733.733 0 00.084-.168.583.583 0 00.056-.168c.01-.062.017-.124.019-.186a.99.99 0 00-.272-.66zm-3.528.307a.96.96 0 00-.195-.307.95.95 0 00-1.015-.195.96.96 0 00-.307.195 1.074 1.074 0 00-.195.307.921.921 0 00.838 1.285h.019a.921.921 0 00.931-.912v-.019a.957.957 0 00-.076-.354zm7.448 0a.84.84 0 00-.503-.503.872.872 0 00-.531-.056.554.554 0 00-.177.056.714.714 0 00-.168.084 1.493 1.493 0 00-.14.112.981.981 0 00-.27.661c.002.062.008.125.019.186.01.058.029.115.056.168.02.059.049.116.084.168l.112.14.14.112a.733.733 0 00.168.084.572.572 0 00.177.056.921.921 0 001.108-.893v-.019a.957.957 0 00-.075-.356zm3.528-.307a.96.96 0 00-.307-.195.953.953 0 00-1.015.195.96.96 0 00-.195.307.921.921 0 00.838 1.285h.019a.983.983 0 00.661-.27l.112-.14a.733.733 0 00.084-.168.583.583 0 00.056-.168c.01-.062.017-.124.019-.186a.994.994 0 00-.272-.66zm3.723 0a1.074 1.074 0 00-.307-.195.894.894 0 00-.54-.056.594.594 0 00-.168.056.714.714 0 00-.168.084 1.493 1.493 0 00-.14.112 1.074 1.074 0 00-.195.307.916.916 0 00-.074.354c.004.246.1.482.27.661l.14.112a.733.733 0 00.168.084.583.583 0 00.168.056c.062.01.124.017.186.019a.788.788 0 00.354-.074 1.06 1.06 0 00.307-.195l.112-.14a.733.733 0 00.084-.168.583.583 0 00.056-.168c.01-.062.017-.124.019-.186a.99.99 0 00-.272-.663z"/></svg>